HIERARCHY
ROOT Hips
{
	OFFSET -3.958830 18.904000 13.208200
	CHANNELS 6 Xposition Yposition Zposition Zrotation Yrotation Xrotation 
	JOINT LHipJoint
	{
		OFFSET 0.000000 0.000000 0.000000
		CHANNELS 3 Zrotation Yrotation Xrotation
		JOINT LeftUpLeg
		{
			OFFSET 1.800000 -1.400000 0.085000
			CHANNELS 3 Zrotation Yrotation Xrotation
			JOINT LeftLeg
			{
				OFFSET 2.215000 -6.000000 0.000000
				CHANNELS 3 Zrotation Yrotation Xrotation
				JOINT LeftFoot
				{
					OFFSET 2.500000 -6.900000 0.000000
					CHANNELS 3 Zrotation Yrotation Xrotation
					JOINT LeftToeBase
					{
						OFFSET 0.200000 -0.500000 1.950000
						CHANNELS 3 Zrotation Yrotation Xrotation
						End Site
						{
							OFFSET 0.000000 0.000000 0.000000
						}
					}
				}
			}
		}
	}
	JOINT RHipJoint
	{
		OFFSET 0.000000 0.000000 0.000000
		CHANNELS 3 Zrotation Yrotation Xrotation
		JOINT RightUpLeg
		{
			OFFSET -1.800000 -1.400000 0.085000
			CHANNELS 3 Zrotation Yrotation Xrotation
			JOINT RightLeg
			{
				OFFSET -2.215000 -6.000000 0.000000
				CHANNELS 3 Zrotation Yrotation Xrotation
				JOINT RightFoot
				{
					OFFSET -2.500000 -6.900000 0.000000
					CHANNELS 3 Zrotation Yrotation Xrotation
					JOINT RightToeBase
					{
						OFFSET -0.200000 -0.500000 1.950000
						CHANNELS 3 Zrotation Yrotation Xrotation
						End Site
						{
							OFFSET 0.000000 0.000000 0.000000
						}
					}
				}
			}
		}
	}
	JOINT LowerBack
	{
		OFFSET 0.000000 0.000000 0.000000
		CHANNELS 3 Zrotation Yrotation Xrotation
		JOINT Spine
		{
			OFFSET -0.087000 1.940000 -0.288900
			CHANNELS 3 Zrotation Yrotation Xrotation
			JOINT Spine1
			{
				OFFSET 0.000000 1.950000 0.060000
				CHANNELS 3 Zrotation Yrotation Xrotation
				JOINT Neck
				{
					OFFSET 0.000000 0.000000 0.000000
					CHANNELS 3 Zrotation Yrotation Xrotation
					JOINT Neck1
					{
						OFFSET 0.000000 1.600000 0.340000
						CHANNELS 3 Zrotation Yrotation Xrotation
						JOINT Head
						{
							OFFSET 0.000000 1.667000 -0.240000
							CHANNELS 3 Zrotation Yrotation Xrotation
							End Site
							{
								OFFSET 0.000000 0.000000 0.000000
							}
						}
					}
				}
				JOINT LeftShoulder
				{
					OFFSET 0.000000 0.000000 0.000000
					CHANNELS 3 Zrotation Yrotation Xrotation
					JOINT LeftArm
					{
						OFFSET 2.700000 1.550000 -0.730000
						CHANNELS 3 Zrotation Yrotation Xrotation
						JOINT LeftForeArm
						{
							OFFSET 5.450000 0.000000 0.000000
							CHANNELS 3 Zrotation Yrotation Xrotation
							JOINT LeftHand
							{
								OFFSET 3.450000 0.000000 0.000000
								CHANNELS 3 Zrotation Yrotation Xrotation
								JOINT LeftHandIndex1
								{
									OFFSET 0.750000 0.000000 0.000000
									CHANNELS 3 Zrotation Yrotation Xrotation
									End Site
									{
										OFFSET 0.000000 0.000000 0.000000
									}
								}
							}
						}
					}
				}
				JOINT RightShoulder
				{
					OFFSET 0.000000 0.000000 0.000000
					CHANNELS 3 Zrotation Yrotation Xrotation
					JOINT RightArm
					{
						OFFSET -2.700000 1.550000 -0.730000
						CHANNELS 3 Zrotation Yrotation Xrotation
						JOINT RightForeArm
						{
							OFFSET -5.450000 0.000000 0.000000
							CHANNELS 3 Zrotation Yrotation Xrotation
							JOINT RightHand
							{
								OFFSET -3.450000 0.000000 0.000000
								CHANNELS 3 Zrotation Yrotation Xrotation
								JOINT RightHandIndex1
								{
									OFFSET -0.750000 0.000000 0.000000
									CHANNELS 3 Zrotation Yrotation Xrotation
									End Site
									{
										OFFSET 0.000000 0.000000 0.000000
									}
								}
							}
						}
					}
				}
			}
		}
	}
}
MOTION
Frames: 13
Frame Time: 0.016667
-0.431050 15.992060 -3.018260 -4.227891 -1.987602 -3.852353 -15.405155 12.491033 3.590955 -7.259402 -4.091892 2.109463 -19.043717 14.727807 34.450290 0.795554 9.311023 1.689915 0.627820 0.059160 0.711080 18.312006 -8.531391 4.267778 -4.312551 6.134237 -36.076975 39.352602 -16.864381 25.083023 -1.210485 -7.203132 2.048359 0.059060 0.197380 0.428520 -3.352477 -3.638882 -8.876719 18.661049 -9.097158 32.397012 -3.971201 -5.234340 6.192043 5.312566 1.462549 -7.848183 0.624517 0.172869 33.234012 -14.527980 10.372810 -8.038620 -12.287554 -0.986595 -0.848663 7.317250 1.683908 0.273605 118.957929 -55.766095 -82.823281 -4.003497 2.624641 0.556680 0.325060 -0.062340 0.240600 1.943462 -1.786682 6.316243 10.881161 -19.404195 -5.097929 102.315388 71.521921 66.037149 2.478040 -0.944278 -0.168870 0.005110 -0.196290 -0.429480 
-0.427470 15.828710 -2.937530 -3.236910 -2.507508 -2.657855 -15.364702 12.093964 3.573048 -8.130511 -4.459498 1.010752 -19.693638 15.834591 36.976711 0.865528 9.733616 1.510464 0.696150 0.145860 0.789090 18.408481 -8.453794 4.514769 -5.181191 7.493360 -39.623735 39.346438 -18.191727 28.551096 -1.357635 -7.767588 1.835193 0.113030 0.133660 0.456970 -3.555396 -2.954576 -8.988613 18.370690 -7.358387 28.778315 -3.522774 -4.421093 8.791223 5.366211 3.964413 -7.846675 5.044785 -1.123635 35.795485 -16.017780 10.665030 -8.675270 -10.985552 -2.604155 -0.498157 14.189734 5.017943 1.339744 111.160478 -59.132738 -74.712368 -3.937319 2.275854 0.563360 0.327440 -0.013220 0.230390 0.684337 -1.866518 5.807758 4.850643 -22.910342 -3.825990 118.942703 66.947005 84.474496 1.965298 -1.740685 -0.140850 -0.021090 -0.231040 -0.453500 
-0.415300 15.735990 -2.846640 -2.310633 -3.589435 -1.722000 -15.301861 11.813455 3.558464 -8.715175 -4.269025 0.520189 -20.714180 16.762321 37.773372 0.970499 9.939334 1.423473 0.738330 0.193300 0.826360 18.507949 -8.433565 4.687572 -5.823932 8.552994 -41.912438 38.707578 -18.993487 31.264002 -1.443217 -8.149021 1.708979 0.121650 0.072110 0.465740 -3.797858 -2.407304 -9.043908 18.726370 -6.594681 26.124216 -4.355190 -4.122909 10.445836 5.358382 4.400092 -8.591907 5.930643 -1.454294 37.659459 -16.702410 10.864000 -7.981820 -9.175205 -2.720380 0.365604 15.226161 7.135951 2.495796 109.178765 -63.685474 -77.262662 -3.835951 1.985006 0.548710 0.308350 0.012370 0.230210 -1.216849 -2.023867 6.170932 3.570897 -22.305936 -2.240579 126.884168 64.463664 92.329001 1.856740 -2.132141 -0.095810 -0.075550 -0.271390 -0.455050 
-0.406480 15.701100 -2.750380 -1.361376 -3.318596 -0.243887 -15.263554 11.647150 3.518997 -8.921512 -4.253979 -0.376783 -21.163747 17.206372 38.230527 1.049340 10.076868 1.422161 0.705960 0.156990 0.776440 18.575504 -8.374296 4.823516 -7.107676 8.702907 -44.110745 38.798266 -19.698225 32.613666 -1.445324 -8.486374 1.624483 0.116150 0.141430 0.455670 -3.955087 -2.165000 -9.057877 19.053419 -6.489710 23.813773 -5.266316 -4.244638 10.013034 5.089899 3.407275 -8.796076 4.259165 -1.186954 36.048917 -15.807340 10.395080 -4.515090 -8.916508 -1.541499 0.911663 14.155742 7.196848 3.939069 114.241455 -67.670453 -90.514445 -3.994200 2.209222 0.461960 0.366430 -0.064320 0.254410 -1.143567 -2.416180 6.179634 4.344162 -21.122654 -1.429287 132.322018 62.574780 97.061273 1.804329 -2.338043 -0.102810 -0.087940 -0.275680 -0.424800 
-0.414900 15.752080 -2.639190 -1.476592 -3.708309 1.481951 -15.243229 11.676656 3.419942 -7.973424 -4.081956 -1.643168 -20.793492 17.130533 38.084130 1.071399 9.989301 1.481497 0.663520 0.111050 0.696940 18.597984 -8.366278 4.860971 -6.747805 9.244680 -44.521950 38.403270 -19.451520 32.574949 -1.401080 -8.423005 1.659311 0.082410 0.214190 0.459460 -4.019478 -2.162180 -8.981949 19.331302 -6.252002 21.244030 -4.684257 -4.171247 9.761938 4.533634 1.985480 -9.203607 1.762890 -0.223514 35.222678 -13.909330 9.802470 -1.962930 -9.347303 -2.026078 1.876218 7.345669 7.618929 2.707368 130.587698 -72.195385 -118.730919 -4.072380 3.316066 0.413680 0.391040 -0.111260 0.285940 0.316380 -0.862541 6.114137 5.736091 -18.138433 -1.817257 128.041940 61.356997 88.950285 1.865273 -2.295157 -0.097420 -0.092120 -0.261550 -0.376960 
-0.420620 15.913720 -2.562850 -1.902785 -4.594765 0.965660 -15.273353 12.070146 3.400656 -6.330424 -3.601345 -1.552733 -19.671635 17.074077 38.442655 1.195174 9.949465 1.544260 0.573660 0.009210 0.566540 18.503850 -8.460869 4.699819 -5.096315 9.577207 -41.287089 36.259011 -18.172079 31.911040 -1.257949 -8.004844 1.831643 -0.021660 0.277710 0.452730 -3.821102 -2.664909 -8.924895 19.124658 -6.958960 23.688092 -4.494419 -4.291703 7.180059 4.422701 -0.051379 -9.911903 -1.733630 1.554001 34.255631 -11.734700 9.710900 1.936340 -9.359889 -1.806181 2.520055 -2.102352 10.239643 -0.112756 165.535912 -76.022603 -165.620045 -3.881429 3.835537 0.363520 0.389650 -0.161450 0.321990 0.447397 0.933618 6.525736 11.503454 -12.999769 -3.533243 118.897707 62.100414 77.027475 2.022913 -2.146522 -0.072720 -0.141140 -0.249380 -0.307040 
-0.437890 16.109570 -2.464570 -1.916224 -4.771330 1.255330 -15.314545 12.450705 3.413660 -5.543971 -3.903250 -2.625178 -16.882370 16.294364 40.412480 1.231036 9.912969 1.578747 0.451470 -0.149490 0.475730 18.404545 -8.559531 4.502423 -3.552911 9.195876 -38.658392 33.292277 -16.812015 31.168386 -1.077909 -7.469599 2.026268 -0.142030 0.323130 0.445610 -3.599742 -3.221055 -8.852787 17.724299 -7.310428 24.188734 -3.459539 -4.411110 5.083599 4.248171 -1.359291 -10.701442 -4.210016 2.699974 34.109718 -11.055140 9.768670 4.990280 -10.031233 -1.529729 3.105108 -12.450457 11.562742 -3.495651 -143.255185 -77.624447 130.396253 -3.749752 3.527649 0.351500 0.392700 -0.202170 0.304620 1.472634 1.829717 7.259308 19.855047 -10.003780 -4.843298 100.310720 62.498953 56.511018 2.168327 -2.159520 -0.079530 -0.164340 -0.195540 -0.286160 
-0.458300 16.313960 -2.351690 -1.850344 -5.107020 2.446598 -15.319879 12.721334 3.363803 -4.796038 -4.287789 -4.889985 -13.362654 15.222634 43.075016 1.173069 9.861597 1.596496 0.395000 -0.217950 0.405410 18.359536 -8.657254 4.389964 -2.377045 9.190272 -37.457264 29.761678 -15.518403 31.354405 -0.910326 -7.001399 2.220042 -0.179680 0.389580 0.411810 -3.510582 -3.539330 -8.738481 16.865322 -7.269185 23.652418 -2.508681 -4.093424 2.240929 3.713051 -3.450134 -10.579843 -7.824911 4.755405 32.663752 -9.176430 9.002530 5.651620 -10.354168 1.636389 3.641408 -23.452421 8.029142 -1.944155 -83.414756 -76.642707 60.435644 -4.145675 3.308512 0.342610 0.401630 -0.255580 0.302240 2.992403 0.689037 6.142135 27.017080 -6.874659 -5.478505 79.014765 59.245658 38.769924 2.002507 -2.335192 -0.104870 -0.115700 -0.147040 -0.269060 
-0.474190 16.534970 -2.238980 -1.694626 -4.810718 3.239488 -15.302214 12.969590 3.344809 -3.866582 -4.935518 -7.543759 -9.391308 14.043068 46.962659 1.171673 9.915092 1.557601 0.396780 -0.210190 0.376280 18.328999 -8.815771 4.254040 -1.666676 8.894009 -36.391206 25.495487 -14.232437 32.119738 -0.785520 -6.530998 2.386462 -0.196830 0.379940 0.384630 -3.474348 -3.747087 -8.635289 16.131119 -7.418535 23.050218 -2.000639 -4.004424 -1.533397 3.246993 -5.170751 -9.821297 -11.137388 6.242077 32.680402 -7.716050 7.943440 5.271400 -12.866265 3.106119 2.787144 -31.779637 7.734724 -4.717855 -56.151203 -64.413291 31.547762 -3.773285 3.813693 0.362450 0.351210 -0.240530 0.314640 6.547114 0.681201 5.248073 32.653480 -5.413871 -6.888923 59.209841 52.099738 24.076204 1.962032 -2.248151 -0.090530 -0.096190 -0.150650 -0.243570 
-0.533020 16.717470 -2.096850 -0.876835 -4.661074 4.414157 -15.313542 13.108252 3.379795 -2.798900 -5.636775 -10.655897 -5.957706 13.170427 51.074450 1.215418 10.163198 1.462736 0.335980 -0.297460 0.337070 18.275223 -9.007819 4.151600 -0.846593 8.770237 -35.947401 20.192898 -12.772391 33.927332 -0.635233 -6.126527 2.536356 -0.263590 0.384840 0.357290 -3.358805 -3.705585 -8.639717 13.208002 -6.131389 20.616310 -0.720168 -3.235607 -4.159062 2.877555 -5.019488 -9.319443 -11.204540 6.346298 34.471947 -6.534870 7.178750 7.253890 -15.901851 3.517835 2.148696 -38.191981 7.829179 -7.162819 -37.622527 -53.028249 15.359418 -3.714878 3.634247 0.374710 0.330100 -0.259930 0.295640 10.457020 0.494668 4.869408 38.612751 -6.207681 -8.924848 42.362712 44.556842 13.458844 2.006333 -2.024740 -0.099750 -0.102520 -0.124110 -0.241490 
-0.595820 16.865240 -1.962570 0.296115 -4.494276 5.602439 -15.361668 13.130288 3.522192 -2.523372 -6.973066 -14.562042 -1.203627 11.626002 57.611703 1.313436 10.746646 1.287071 0.294760 -0.343410 0.280200 18.217753 -9.182599 3.957460 -0.248919 8.246440 -35.765961 14.020078 -11.035388 36.257492 -0.504157 -5.784402 2.669264 -0.285450 0.430080 0.324800 -3.193301 -3.617947 -8.603325 9.517448 -5.036768 18.244208 0.650139 -2.819618 -7.000431 2.071846 -5.015525 -8.038789 -11.278397 6.627688 34.535401 -4.730970 6.178230 8.061740 -19.260056 5.011336 0.910168 -42.084379 7.520767 -8.198517 -23.629871 -41.437236 6.281017 -3.737881 3.398495 0.386810 0.326510 -0.287340 0.308850 15.676367 -1.010189 3.753976 41.981593 -7.377470 -10.131873 29.467652 37.232617 6.971829 2.044626 -1.803542 -0.133140 -0.064420 -0.102690 -0.226370 
-0.644800 16.978020 -1.831380 0.586436 -4.512399 6.694172 -15.394873 13.010423 3.684713 -1.425337 -8.402059 -18.744786 3.806416 10.016967 65.823658 1.501460 11.807596 1.023120 0.205910 -0.459760 0.213410 18.213721 -9.298295 3.761168 0.705576 7.932909 -35.696615 7.884700 -9.129744 38.645720 -0.380667 -5.578682 2.781218 -0.313950 0.538010 0.274760 -3.137287 -3.371358 -8.542334 7.770532 -4.159251 15.951006 0.997959 -2.274297 -9.339485 1.535241 -4.931855 -6.344813 -10.857669 6.633282 33.395095 -3.916880 5.708390 9.827400 -23.128128 6.974118 -0.583078 -43.474060 8.036908 -8.468002 -15.063251 -32.274691 2.232725 -3.834743 3.170466 0.384970 0.375750 -0.369390 0.319780 20.666421 -3.131548 2.455809 43.099317 -8.854439 -10.713649 20.579760 30.950733 3.391092 2.054359 -1.636888 -0.228040 0.012270 -0.059310 -0.228540 
-0.671350 17.067890 -1.716390 0.088237 -3.868983 7.470333 -15.409618 12.929029 3.799904 -0.033403 -9.437234 -22.613707 10.052354 6.347395 71.878279 1.627517 12.393642 0.889980 0.157450 -0.530540 0.180180 18.226523 -9.427272 3.601896 2.097153 7.551409 -35.547914 1.782205 -6.925410 40.180162 -0.309840 -5.374211 2.874210 -0.341820 0.591720 0.271720 -3.140091 -3.103346 -8.485623 7.443153 -3.562764 14.690492 0.713774 -1.689077 -11.432049 1.701355 -4.253290 -4.830794 -9.199225 5.880985 32.281690 -4.167560 5.686530 10.899920 -25.379148 9.527085 -2.011458 -45.067522 8.875401 -8.823557 -10.072359 -26.844501 0.574736 -3.895849 3.054024 0.386560 0.408850 -0.401560 0.338900 22.504869 -6.134196 1.314870 45.085863 -10.295927 -11.296433 15.777045 27.105214 1.827567 2.076560 -1.560769 -0.271180 0.027380 -0.050260 -0.226940 
